<svg id="Layer_1" data-name="Layer 1" xmlns="http://www.w3.org/2000/svg" viewBox="0 0 540 174"><title>lookgoodr</title><path d="M39.48,127.61A14.26,14.26,0,0,1,31,125a17.24,17.24,0,0,1-5.73-7.08,24.55,24.55,0,0,1-2-10.33v-59a5.19,5.19,0,0,1,5.4-5.41,5.19,5.19,0,0,1,5.41,5.41v59a12.84,12.84,0,0,0,1.52,6.6,4.44,4.44,0,0,0,3.89,2.6h2.7a4.51,4.51,0,0,1,3.52,1.51,5.63,5.63,0,0,1,1.35,3.89A4.65,4.65,0,0,1,45,126.1a8.68,8.68,0,0,1-5.29,1.51Z"/><path d="M73.22,128a30.58,30.58,0,0,1-15.47-3.84,27.85,27.85,0,0,1-10.54-10.59,30.88,30.88,0,0,1-3.84-15.52,31.11,31.11,0,0,1,3.84-15.63,27.87,27.87,0,0,1,10.54-10.6A30.69,30.69,0,0,1,73.22,68a30.44,30.44,0,0,1,15.35,3.84,27.9,27.9,0,0,1,10.55,10.6A31.22,31.22,0,0,1,103,98.09a31.27,31.27,0,0,1-3.79,15.52A27.44,27.44,0,0,1,88.68,124.2,30.55,30.55,0,0,1,73.22,128Zm0-9.73a19,19,0,0,0,10-2.6,18.17,18.17,0,0,0,6.75-7.13,21.81,21.81,0,0,0,2.44-10.49,22.13,22.13,0,0,0-2.44-10.55,18.07,18.07,0,0,0-6.75-7.19,19,19,0,0,0-10-2.59,19,19,0,0,0-9.95,2.59,18.35,18.35,0,0,0-6.81,7.19A21.81,21.81,0,0,0,54,98.09a21.49,21.49,0,0,0,2.49,10.49,18.46,18.46,0,0,0,6.81,7.13A19,19,0,0,0,73.22,118.31Z"/><path d="M138,128a30.55,30.55,0,0,1-15.46-3.84A27.87,27.87,0,0,1,112,113.61a30.88,30.88,0,0,1-3.84-15.52A31.11,31.11,0,0,1,112,82.46a27.9,27.9,0,0,1,10.55-10.6,32.84,32.84,0,0,1,30.82,0,27.87,27.87,0,0,1,10.54,10.6,31.11,31.11,0,0,1,3.84,15.63A31.27,31.27,0,0,1,164,113.61a27.58,27.58,0,0,1-10.49,10.59A30.61,30.61,0,0,1,138,128Zm0-9.73a19,19,0,0,0,9.95-2.6,18.2,18.2,0,0,0,6.76-7.13,21.92,21.92,0,0,0,2.43-10.49,22.25,22.25,0,0,0-2.43-10.55,18.09,18.09,0,0,0-6.76-7.19,20.41,20.41,0,0,0-19.9,0,18.49,18.49,0,0,0-6.81,7.19,21.81,21.81,0,0,0-2.49,10.55,21.49,21.49,0,0,0,2.49,10.49,18.61,18.61,0,0,0,6.81,7.13A19,19,0,0,0,138,118.31Z"/><path d="M181.25,127.61a5,5,0,0,1-5.3-5.3V48.45a5,5,0,0,1,5.3-5.3,5,5,0,0,1,5.29,5.3v73.86a5,5,0,0,1-5.29,5.3ZM186.33,106l-6.71-7.35L212.82,69a4.79,4.79,0,0,1,3.63-1.41,5.4,5.4,0,0,1,4.81,5.3,5,5,0,0,1-1.73,3.46Zm33.52,21.09a5.27,5.27,0,0,1-3.84,1.24,4.88,4.88,0,0,1-3.51-1.89L190.55,99.28l7.57-7.14,22.49,27.68a5.14,5.14,0,0,1,1.24,3.73A5,5,0,0,1,219.85,127.07Z"/><path d="M248.51,128a26.34,26.34,0,0,1-24.12-14.43,32.74,32.74,0,0,1-3.56-15.52,31.11,31.11,0,0,1,3.83-15.63,27.9,27.9,0,0,1,10.55-10.6,32.84,32.84,0,0,1,30.82,0,27.87,27.87,0,0,1,10.54,10.6,31.11,31.11,0,0,1,3.84,15.63H274a35,35,0,0,1-3.3,15.52,26.37,26.37,0,0,1-9,10.59A23.14,23.14,0,0,1,248.51,128Zm2,24.12a34.55,34.55,0,0,1-14.39-3,30.29,30.29,0,0,1-11.35-8.87,4.6,4.6,0,0,1-1-3.78,4.82,4.82,0,0,1,2.11-3.14,5.21,5.21,0,0,1,4.06-.86,5.43,5.43,0,0,1,3.4,2.16,20,20,0,0,0,7.36,5.73,23.59,23.59,0,0,0,10,2,19.13,19.13,0,0,0,9.57-2.48,17.88,17.88,0,0,0,7-7.36,25,25,0,0,0,2.59-11.89V105.33l3.57-9.51,7,2.27v23.36A32,32,0,0,1,276.63,137a28.9,28.9,0,0,1-10.55,11.09A29.44,29.44,0,0,1,250.46,152.16Zm.21-33.85a19,19,0,0,0,10-2.6,18.2,18.2,0,0,0,6.76-7.13,21.92,21.92,0,0,0,2.43-10.49,22.25,22.25,0,0,0-2.43-10.55,18.09,18.09,0,0,0-6.76-7.19,20.41,20.41,0,0,0-19.9,0,18.49,18.49,0,0,0-6.81,7.19,21.81,21.81,0,0,0-2.49,10.55,21.49,21.49,0,0,0,2.49,10.49,18.61,18.61,0,0,0,6.81,7.13A19,19,0,0,0,250.67,118.31Z"/><path d="M315.45,128A30.58,30.58,0,0,1,300,124.2a27.85,27.85,0,0,1-10.54-10.59,30.88,30.88,0,0,1-3.84-15.52,31.11,31.11,0,0,1,3.84-15.63A27.87,27.87,0,0,1,300,71.86a32.84,32.84,0,0,1,30.82,0,27.9,27.9,0,0,1,10.55,10.6,31.22,31.22,0,0,1,3.84,15.63,31.27,31.27,0,0,1-3.79,15.52,27.44,27.44,0,0,1-10.49,10.59A30.55,30.55,0,0,1,315.45,128Zm0-9.73a19,19,0,0,0,9.95-2.6,18.17,18.17,0,0,0,6.75-7.13,21.81,21.81,0,0,0,2.44-10.49,22.13,22.13,0,0,0-2.44-10.55,18.07,18.07,0,0,0-6.75-7.19,20.41,20.41,0,0,0-19.9,0,18.45,18.45,0,0,0-6.82,7.19,21.92,21.92,0,0,0-2.48,10.55,21.6,21.6,0,0,0,2.48,10.49,18.56,18.56,0,0,0,6.82,7.13A19,19,0,0,0,315.45,118.31Z"/><path d="M380.22,128a30.55,30.55,0,0,1-15.46-3.84,27.87,27.87,0,0,1-10.55-10.59,30.87,30.87,0,0,1-3.83-15.52,31.11,31.11,0,0,1,3.83-15.63,27.9,27.9,0,0,1,10.55-10.6,32.84,32.84,0,0,1,30.82,0,27.87,27.87,0,0,1,10.54,10.6A31.11,31.11,0,0,1,410,98.09a31.17,31.17,0,0,1-3.79,15.52,27.48,27.48,0,0,1-10.48,10.59A30.61,30.61,0,0,1,380.22,128Zm0-9.73a19,19,0,0,0,9.95-2.6,18.2,18.2,0,0,0,6.76-7.13,21.92,21.92,0,0,0,2.43-10.49,22.25,22.25,0,0,0-2.43-10.55,18.09,18.09,0,0,0-6.76-7.19,20.41,20.41,0,0,0-19.9,0,18.49,18.49,0,0,0-6.81,7.19A21.81,21.81,0,0,0,361,98.09a21.49,21.49,0,0,0,2.49,10.49,18.61,18.61,0,0,0,6.81,7.13A19,19,0,0,0,380.22,118.31Z"/><path d="M445,128a29.5,29.5,0,0,1-15.2-3.95,29.07,29.07,0,0,1-10.7-10.76,30,30,0,0,1-4-15.35,31.9,31.9,0,0,1,3.62-15.3A28,28,0,0,1,428.67,72a26,26,0,0,1,14.16-4,26.6,26.6,0,0,1,20.87,9.84V48.67a5.32,5.32,0,0,1,1.57-4,5.46,5.46,0,0,1,4-1.52,5.21,5.21,0,0,1,5.51,5.52V98a30.06,30.06,0,0,1-3.94,15.35A29.13,29.13,0,0,1,445,128Zm0-9.73a18.46,18.46,0,0,0,9.84-2.65,18.8,18.8,0,0,0,6.81-7.3A21.64,21.64,0,0,0,464.14,98a21.25,21.25,0,0,0-2.49-10.38,18.91,18.91,0,0,0-6.81-7.19,19.5,19.5,0,0,0-19.63,0,19.12,19.12,0,0,0-6.92,7.19A20.84,20.84,0,0,0,425.75,98a21.22,21.22,0,0,0,2.54,10.38,19,19,0,0,0,6.92,7.3A18.5,18.5,0,0,0,445,118.31Z"/><path d="M489.33,127.61a5.55,5.55,0,0,1-4-1.35,5.37,5.37,0,0,1-1.41-4.06V73.86a4.9,4.9,0,0,1,5.41-5.4,4.77,4.77,0,0,1,5.41,5.4V122.2a5.53,5.53,0,0,1-1.35,4A5.4,5.4,0,0,1,489.33,127.61Zm-.11-37A21.66,21.66,0,0,1,492.41,79a23.41,23.41,0,0,1,8.6-8.16,23.94,23.94,0,0,1,11.9-3c4.32,0,7.55.7,9.67,2.11S525.52,73,525,75a4.12,4.12,0,0,1-1.25,2.32,4.33,4.33,0,0,1-2.1,1,6.43,6.43,0,0,1-2.6-.11A30.34,30.34,0,0,0,506.63,78a16.83,16.83,0,0,0-8.7,4.44,11.22,11.22,0,0,0-3.19,8.22Z"/><circle cx="373.47" cy="92.47" r="3.47"/><circle cx="387.61" cy="92.47" r="3.47"/><circle cx="373.47" cy="105.79" r="3.47"/><circle cx="387.61" cy="105.79" r="3.47"/></svg>